<svg xmlns="http://www.w3.org/2000/svg" width="780" height="470" viewBox="0 0 780 470">
  <defs>
    <marker id="arrowhead" markerWidth="8" markerHeight="6" refX="8" refY="3" orient="auto" markerUnits="strokeWidth">
      <polygon points="0 0, 8 3, 0 6" fill="#888" />
    </marker>
    <filter id="shadow" x="-10%" y="-10%" width="130%" height="130%">
      <feDropShadow dx="1" dy="1" stdDeviation="2" flood-opacity="0.15" />
    </filter>
  </defs>
  <rect width="100%" height="100%" fill="#ffffff" rx="8" />
  <text x="390" y="26" text-anchor="middle" font-size="16" font-weight="600" font-family="'SF Mono', 'Cascadia Code', 'Fira Code', Consolas, monospace" fill="#333">Balanced Binary Tree</text>
  <line x1="30" y1="40" x2="750" y2="40" stroke="#e0e0e0" stroke-width="1" />
  <g class="edges">
    <path d="M 390 140 C 390 185, 210 175, 210 220" fill="none" stroke="#888" stroke-width="1.5" marker-end="url(#arrowhead)" />
    <path d="M 390 140 C 390 185, 570 175, 570 220" fill="none" stroke="#888" stroke-width="1.5" marker-end="url(#arrowhead)" />
    <path d="M 210 260 C 210 296, 300 304, 300 340" fill="none" stroke="#888" stroke-width="1.5" marker-end="url(#arrowhead)" />
    <path d="M 210 260 C 210 296, 120 304, 120 340" fill="none" stroke="#888" stroke-width="1.5" marker-end="url(#arrowhead)" />
    <path d="M 570 260 C 570 296, 480 304, 480 340" fill="none" stroke="#888" stroke-width="1.5" marker-end="url(#arrowhead)" />
    <path d="M 570 260 C 570 296, 660 304, 660 340" fill="none" stroke="#888" stroke-width="1.5" marker-end="url(#arrowhead)" />
  </g>
  <g class="nodes">
    <rect x="330" y="100" width="120" height="40" rx="6" ry="6" fill="#e8f4fd" stroke="#4a90d9" stroke-width="1.5" filter="url(#shadow)" />
    <text x="390" y="124.55" text-anchor="middle" font-size="13" font-family="'SF Mono', 'Cascadia Code', 'Fira Code', Consolas, monospace" fill="#333">0</text>
    <rect x="150" y="220" width="120" height="40" rx="6" ry="6" fill="#e8f4fd" stroke="#4a90d9" stroke-width="1.5" filter="url(#shadow)" />
    <text x="210" y="244.55" text-anchor="middle" font-size="13" font-family="'SF Mono', 'Cascadia Code', 'Fira Code', Consolas, monospace" fill="#333">1</text>
    <rect x="510" y="220" width="120" height="40" rx="6" ry="6" fill="#e8f4fd" stroke="#4a90d9" stroke-width="1.5" filter="url(#shadow)" />
    <text x="570" y="244.55" text-anchor="middle" font-size="13" font-family="'SF Mono', 'Cascadia Code', 'Fira Code', Consolas, monospace" fill="#333">2</text>
    <rect x="60" y="340" width="120" height="40" rx="6" ry="6" fill="#e8f4fd" stroke="#4a90d9" stroke-width="1.5" filter="url(#shadow)" />
    <text x="120" y="364.55" text-anchor="middle" font-size="13" font-family="'SF Mono', 'Cascadia Code', 'Fira Code', Consolas, monospace" fill="#333">4</text>
    <rect x="240" y="340" width="120" height="40" rx="6" ry="6" fill="#e8f4fd" stroke="#4a90d9" stroke-width="1.5" filter="url(#shadow)" />
    <text x="300" y="364.55" text-anchor="middle" font-size="13" font-family="'SF Mono', 'Cascadia Code', 'Fira Code', Consolas, monospace" fill="#333">3</text>
    <rect x="420" y="340" width="120" height="40" rx="6" ry="6" fill="#e8f4fd" stroke="#4a90d9" stroke-width="1.5" filter="url(#shadow)" />
    <text x="480" y="364.55" text-anchor="middle" font-size="13" font-family="'SF Mono', 'Cascadia Code', 'Fira Code', Consolas, monospace" fill="#333">5</text>
    <rect x="600" y="340" width="120" height="40" rx="6" ry="6" fill="#e8f4fd" stroke="#4a90d9" stroke-width="1.5" filter="url(#shadow)" />
    <text x="660" y="364.55" text-anchor="middle" font-size="13" font-family="'SF Mono', 'Cascadia Code', 'Fira Code', Consolas, monospace" fill="#333">6</text>
  </g>
  <line x1="30" y1="440" x2="750" y2="440" stroke="#e0e0e0" stroke-width="1" />
  <text x="390" y="459" text-anchor="middle" font-size="12" font-family="'SF Mono', 'Cascadia Code', 'Fira Code', Consolas, monospace" fill="#999">7 nodes · 0 dummy · 6 edges · 3 levels</text>
</svg>