<svg xmlns="http://www.w3.org/2000/svg" width="545" height="618" viewBox="0 0 545 618">
  <defs>
    <marker id="arrowhead" markerWidth="8" markerHeight="6" refX="8" refY="3" orient="auto" markerUnits="strokeWidth">
      <polygon points="0 0, 8 3, 0 6" fill="#888" />
    </marker>
    <filter id="shadow" x="-10%" y="-10%" width="130%" height="130%">
      <feDropShadow dx="1" dy="1" stdDeviation="2" flood-opacity="0.15" />
    </filter>
  </defs>
  <rect width="100%" height="100%" fill="#ffffff" rx="8" />
  <text x="272.5" y="26" text-anchor="middle" font-size="16" font-weight="600" font-family="'SF Mono', 'Cascadia Code', 'Fira Code', Consolas, monospace" fill="#333">Cross-Level Bezier Curves</text>
  <line x1="30" y1="40" x2="515" y2="40" stroke="#e0e0e0" stroke-width="1" />
  <rect x="137.5" y="51" width="14" height="14" rx="3" ry="3" fill="#d4edda" stroke="#28a745" stroke-width="1.5" />
  <text x="155.5" y="62" font-size="11" font-family="'SF Mono', 'Cascadia Code', 'Fira Code', Consolas, monospace" fill="#555">Root</text>
  <rect x="227.5" y="51" width="14" height="14" rx="3" ry="3" fill="#fff3cd" stroke="#e6a817" stroke-width="1.5" />
  <text x="245.5" y="62" font-size="11" font-family="'SF Mono', 'Cascadia Code', 'Fira Code', Consolas, monospace" fill="#555">Leaf</text>
  <rect x="317.5" y="51" width="14" height="14" rx="3" ry="3" fill="#e8f4fd" stroke="#4a90d9" stroke-width="1.5" />
  <text x="335.5" y="62" font-size="11" font-family="'SF Mono', 'Cascadia Code', 'Fira Code', Consolas, monospace" fill="#555">Internal</text>
  <line x1="30" y1="68" x2="515" y2="68" stroke="#e0e0e0" stroke-width="1" />
  <g class="edges">
    <path d="M 245 168 C 245 213, 425 203, 425 248" fill="none" stroke="#888" stroke-width="1.5" marker-end="url(#arrowhead)" />
    <path d="M 245 168 C 245 213, 95 231.33333333333334, 65 268 C 35 304.6666666666667, 35 351.3333333333333, 65 388 C 95 424.6666666666667, 245 443, 245 488" fill="none" stroke="#888" stroke-width="1.5" marker-end="url(#arrowhead)" />
    <path d="M 425 288 L 425 368" fill="none" stroke="#888" stroke-width="1.5" marker-end="url(#arrowhead)" />
    <path d="M 425 408 C 425 453, 245 443, 245 488" fill="none" stroke="#888" stroke-width="1.5" marker-end="url(#arrowhead)" />
  </g>
  <g class="nodes">
    <rect x="185" y="128" width="120" height="40" rx="6" ry="6" fill="#d4edda" stroke="#28a745" stroke-width="1.5" filter="url(#shadow)" />
    <text x="245" y="152.55" text-anchor="middle" font-size="13" font-family="'SF Mono', 'Cascadia Code', 'Fira Code', Consolas, monospace" fill="#333">0</text>
    <rect x="365" y="248" width="120" height="40" rx="6" ry="6" fill="#e8f4fd" stroke="#4a90d9" stroke-width="1.5" filter="url(#shadow)" />
    <text x="425" y="272.55" text-anchor="middle" font-size="13" font-family="'SF Mono', 'Cascadia Code', 'Fira Code', Consolas, monospace" fill="#333">1</text>
    <circle cx="65" cy="268" r="5" fill="#ccc" stroke="#ccc" stroke-width="1" />
    <rect x="365" y="368" width="120" height="40" rx="6" ry="6" fill="#e8f4fd" stroke="#4a90d9" stroke-width="1.5" filter="url(#shadow)" />
    <text x="425" y="392.55" text-anchor="middle" font-size="13" font-family="'SF Mono', 'Cascadia Code', 'Fira Code', Consolas, monospace" fill="#333">2</text>
    <circle cx="65" cy="388" r="5" fill="#ccc" stroke="#ccc" stroke-width="1" />
    <rect x="185" y="488" width="120" height="40" rx="6" ry="6" fill="#fff3cd" stroke="#e6a817" stroke-width="1.5" filter="url(#shadow)" />
    <text x="245" y="512.55" text-anchor="middle" font-size="13" font-family="'SF Mono', 'Cascadia Code', 'Fira Code', Consolas, monospace" fill="#333">3</text>
  </g>
  <line x1="30" y1="588" x2="515" y2="588" stroke="#e0e0e0" stroke-width="1" />
  <text x="272.5" y="607" text-anchor="middle" font-size="12" font-family="'SF Mono', 'Cascadia Code', 'Fira Code', Consolas, monospace" fill="#999">4 nodes · 2 dummy · 4 edges · 4 levels</text>
</svg>