<svg xmlns="http://www.w3.org/2000/svg" width="1707" height="710" viewBox="0 0 1707 710">
  <defs>
    <marker id="arrowhead" markerWidth="8" markerHeight="6" refX="8" refY="3" orient="auto" markerUnits="strokeWidth">
      <polygon points="0 0, 8 3, 0 6" fill="#888" />
    </marker>
    <filter id="shadow" x="-10%" y="-10%" width="130%" height="130%">
      <feDropShadow dx="1" dy="1" stdDeviation="2" flood-opacity="0.15" />
    </filter>
  </defs>
  <rect width="100%" height="100%" fill="#ffffff" rx="8" />
  <text x="853.5" y="26" text-anchor="middle" font-size="16" font-weight="600" font-family="'SF Mono', 'Cascadia Code', 'Fira Code', Consolas, monospace" fill="#333">Large-Scale Real-World DAG</text>
  <line x1="30" y1="40" x2="1677" y2="40" stroke="#e0e0e0" stroke-width="1" />
  <g class="edges">
    <path d="M 134 140 L 134 220" fill="none" stroke="#888" stroke-width="1.5" marker-end="url(#arrowhead)" />
    <path d="M 134 140 C 134 185, 226.33333333333334 206.66666666666666, 224 240 C 221.66666666666666 273.3333333333333, 120 295, 120 340" fill="none" stroke="#888" stroke-width="1.5" marker-end="url(#arrowhead)" />
    <path d="M 314 140 C 314 176, 368 184, 368 220" fill="none" stroke="#888" stroke-width="1.5" marker-end="url(#arrowhead)" />
    <path d="M 314 140 C 314 185, 283.3333333333333 206.66666666666666, 251 240 C 218.66666666666666 273.3333333333333, 120 295, 120 340" fill="none" stroke="#888" stroke-width="1.5" marker-end="url(#arrowhead)" />
    <path d="M 494 140 C 494 176, 368 184, 368 220" fill="none" stroke="#888" stroke-width="1.5" marker-end="url(#arrowhead)" />
    <path d="M 494 140 C 494 194, 340.3333333333333 206.66666666666666, 278 240 C 215.66666666666666 273.3333333333333, 120 295, 120 340" fill="none" stroke="#888" stroke-width="1.5" marker-end="url(#arrowhead)" />
    <path d="M 674 140 C 674 176, 548 184, 548 220" fill="none" stroke="#888" stroke-width="1.5" marker-end="url(#arrowhead)" />
    <path d="M 674 140 C 674 185, 655.3333333333334 203.33333333333334, 638 240 C 620.6666666666666 276.6666666666667, 531.8333333333334 323.3333333333333, 570 360 C 608.1666666666666 396.6666666666667, 867 385.75, 867 460" fill="none" stroke="#888" stroke-width="1.5" marker-end="url(#arrowhead)" />
    <path d="M 957 140 C 957 287.25, 368 72.75, 368 220" fill="none" stroke="#888" stroke-width="1.5" marker-end="url(#arrowhead)" />
    <path d="M 957 140 C 957 297.5, 1587 62.5, 1587 220" fill="none" stroke="#888" stroke-width="1.5" marker-end="url(#arrowhead)" />
    <path d="M 957 140 C 957 177, 809 183, 809 220" fill="none" stroke="#888" stroke-width="1.5" marker-end="url(#arrowhead)" />
    <path d="M 957 140 C 957 230, 1317 130, 1317 220" fill="none" stroke="#888" stroke-width="1.5" marker-end="url(#arrowhead)" />
    <path d="M 957 140 C 957 213, 804.5 206.66666666666666, 665 240 C 525.5 273.3333333333333, 120 203.75, 120 340" fill="none" stroke="#888" stroke-width="1.5" marker-end="url(#arrowhead)" />
    <path d="M 1137 140 C 1137 176, 1002 184, 1002 220" fill="none" stroke="#888" stroke-width="1.5" marker-end="url(#arrowhead)" />
    <path d="M 1137 140 C 1137 207.5, 1332 206.66666666666666, 1407 240 C 1482 273.3333333333333, 1587 295, 1587 340" fill="none" stroke="#888" stroke-width="1.5" marker-end="url(#arrowhead)" />
    <path d="M 1317 140 L 1317 220" fill="none" stroke="#888" stroke-width="1.5" marker-end="url(#arrowhead)" />
    <path d="M 1587 140 L 1587 220" fill="none" stroke="#888" stroke-width="1.5" marker-end="url(#arrowhead)" />
    <path d="M 368 260 C 368 296, 300 304, 300 340" fill="none" stroke="#888" stroke-width="1.5" marker-end="url(#arrowhead)" />
    <path d="M 368 260 C 368 322, 120 278, 120 340" fill="none" stroke="#888" stroke-width="1.5" marker-end="url(#arrowhead)" />
    <path d="M 548 260 C 548 296, 480 304, 480 340" fill="none" stroke="#888" stroke-width="1.5" marker-end="url(#arrowhead)" />
    <path d="M 809 260 C 809 296, 867 304, 867 340" fill="none" stroke="#888" stroke-width="1.5" marker-end="url(#arrowhead)" />
    <path d="M 809 260 C 809 305, 740.3333333333334 326.6666666666667, 750 360 C 759.6666666666666 393.3333333333333, 867 415, 867 460" fill="none" stroke="#888" stroke-width="1.5" marker-end="url(#arrowhead)" />
    <path d="M 809 260 C 809 305, 737.3333333333334 326.6666666666667, 777 360 C 816.6666666666666 393.3333333333333, 1047 392.5, 1047 460" fill="none" stroke="#888" stroke-width="1.5" marker-end="url(#arrowhead)" />
    <path d="M 1002 260 C 1002 296, 1047 304, 1047 340" fill="none" stroke="#888" stroke-width="1.5" marker-end="url(#arrowhead)" />
    <path d="M 1002 260 C 1002 305, 949.5 326.6666666666667, 957 360 C 964.5 393.3333333333333, 1047 415, 1047 460" fill="none" stroke="#888" stroke-width="1.5" marker-end="url(#arrowhead)" />
    <path d="M 1317 260 C 1317 296, 1407 304, 1407 340" fill="none" stroke="#888" stroke-width="1.5" marker-end="url(#arrowhead)" />
    <path d="M 1317 260 C 1317 296, 1227 304, 1227 340" fill="none" stroke="#888" stroke-width="1.5" marker-end="url(#arrowhead)" />
    <path d="M 1587 260 L 1587 340" fill="none" stroke="#888" stroke-width="1.5" marker-end="url(#arrowhead)" />
    <path d="M 120 380 C 120 416, 210 424, 210 460" fill="none" stroke="#888" stroke-width="1.5" marker-end="url(#arrowhead)" />
    <path d="M 480 380 C 480 416, 570 424, 570 460" fill="none" stroke="#888" stroke-width="1.5" marker-end="url(#arrowhead)" />
    <path d="M 480 380 C 480 416, 390 424, 390 460" fill="none" stroke="#888" stroke-width="1.5" marker-end="url(#arrowhead)" />
    <path d="M 660 380 C 660 431.75, 867 408.25, 867 460" fill="none" stroke="#888" stroke-width="1.5" marker-end="url(#arrowhead)" />
    <path d="M 1227 380 C 1227 470, 867 370, 867 460" fill="none" stroke="#888" stroke-width="1.5" marker-end="url(#arrowhead)" />
    <path d="M 1227 380 L 1227 460" fill="none" stroke="#888" stroke-width="1.5" marker-end="url(#arrowhead)" />
    <path d="M 1407 380 L 1407 460" fill="none" stroke="#888" stroke-width="1.5" marker-end="url(#arrowhead)" />
    <path d="M 1587 380 C 1587 515, 1047 325, 1047 460" fill="none" stroke="#888" stroke-width="1.5" marker-end="url(#arrowhead)" />
    <path d="M 1587 380 L 1587 460" fill="none" stroke="#888" stroke-width="1.5" marker-end="url(#arrowhead)" />
    <path d="M 1047 500 C 1047 536, 1182 544, 1182 580" fill="none" stroke="#888" stroke-width="1.5" marker-end="url(#arrowhead)" />
  </g>
  <g class="nodes">
    <rect x="74" y="100" width="120" height="40" rx="6" ry="6" fill="#e8f4fd" stroke="#4a90d9" stroke-width="1.5" filter="url(#shadow)" />
    <text x="134" y="124.55" text-anchor="middle" font-size="13" font-family="'SF Mono', 'Cascadia Code', 'Fira Code', Consolas, monospace" fill="#333">202011302059..</text>
    <rect x="254" y="100" width="120" height="40" rx="6" ry="6" fill="#e8f4fd" stroke="#4a90d9" stroke-width="1.5" filter="url(#shadow)" />
    <text x="314" y="124.55" text-anchor="middle" font-size="13" font-family="'SF Mono', 'Cascadia Code', 'Fira Code', Consolas, monospace" fill="#333">202011092101..</text>
    <rect x="434" y="100" width="120" height="40" rx="6" ry="6" fill="#e8f4fd" stroke="#4a90d9" stroke-width="1.5" filter="url(#shadow)" />
    <text x="494" y="124.55" text-anchor="middle" font-size="13" font-family="'SF Mono', 'Cascadia Code', 'Fira Code', Consolas, monospace" fill="#333">201907231638..</text>
    <rect x="614" y="100" width="120" height="40" rx="6" ry="6" fill="#e8f4fd" stroke="#4a90d9" stroke-width="1.5" filter="url(#shadow)" />
    <text x="674" y="124.55" text-anchor="middle" font-size="13" font-family="'SF Mono', 'Cascadia Code', 'Fira Code', Consolas, monospace" fill="#333">202001081519..</text>
    <rect x="897" y="100" width="120" height="40" rx="6" ry="6" fill="#e8f4fd" stroke="#4a90d9" stroke-width="1.5" filter="url(#shadow)" />
    <text x="957" y="124.55" text-anchor="middle" font-size="13" font-family="'SF Mono', 'Cascadia Code', 'Fira Code', Consolas, monospace" fill="#333">202007011014..</text>
    <rect x="1077" y="100" width="120" height="40" rx="6" ry="6" fill="#e8f4fd" stroke="#4a90d9" stroke-width="1.5" filter="url(#shadow)" />
    <text x="1137" y="124.55" text-anchor="middle" font-size="13" font-family="'SF Mono', 'Cascadia Code', 'Fira Code', Consolas, monospace" fill="#333">202007011015..</text>
    <rect x="1257" y="100" width="120" height="40" rx="6" ry="6" fill="#e8f4fd" stroke="#4a90d9" stroke-width="1.5" filter="url(#shadow)" />
    <text x="1317" y="124.55" text-anchor="middle" font-size="13" font-family="'SF Mono', 'Cascadia Code', 'Fira Code', Consolas, monospace" fill="#333">202006241025..</text>
    <rect x="1527" y="100" width="120" height="40" rx="6" ry="6" fill="#e8f4fd" stroke="#4a90d9" stroke-width="1.5" filter="url(#shadow)" />
    <text x="1587" y="124.55" text-anchor="middle" font-size="13" font-family="'SF Mono', 'Cascadia Code', 'Fira Code', Consolas, monospace" fill="#333">202008261550..</text>
    <rect x="74" y="220" width="120" height="40" rx="6" ry="6" fill="#e8f4fd" stroke="#4a90d9" stroke-width="1.5" filter="url(#shadow)" />
    <text x="134" y="244.55" text-anchor="middle" font-size="13" font-family="'SF Mono', 'Cascadia Code', 'Fira Code', Consolas, monospace" fill="#333">202012301947..</text>
    <circle cx="224" cy="240" r="5" fill="#ccc" stroke="#ccc" stroke-width="1" />
    <circle cx="251" cy="240" r="5" fill="#ccc" stroke="#ccc" stroke-width="1" />
    <circle cx="278" cy="240" r="5" fill="#ccc" stroke="#ccc" stroke-width="1" />
    <rect x="308" y="220" width="120" height="40" rx="6" ry="6" fill="#e8f4fd" stroke="#4a90d9" stroke-width="1.5" filter="url(#shadow)" />
    <text x="368" y="244.55" text-anchor="middle" font-size="13" font-family="'SF Mono', 'Cascadia Code', 'Fira Code', Consolas, monospace" fill="#333">202105071132..</text>
    <rect x="488" y="220" width="120" height="40" rx="6" ry="6" fill="#e8f4fd" stroke="#4a90d9" stroke-width="1.5" filter="url(#shadow)" />
    <text x="548" y="244.55" text-anchor="middle" font-size="13" font-family="'SF Mono', 'Cascadia Code', 'Fira Code', Consolas, monospace" fill="#333">202011181131..</text>
    <circle cx="638" cy="240" r="5" fill="#ccc" stroke="#ccc" stroke-width="1" />
    <circle cx="665" cy="240" r="5" fill="#ccc" stroke="#ccc" stroke-width="1" />
    <rect x="749" y="220" width="120" height="40" rx="6" ry="6" fill="#e8f4fd" stroke="#4a90d9" stroke-width="1.5" filter="url(#shadow)" />
    <text x="809" y="244.55" text-anchor="middle" font-size="13" font-family="'SF Mono', 'Cascadia Code', 'Fira Code', Consolas, monospace" fill="#333">202006291928..</text>
    <rect x="942" y="220" width="120" height="40" rx="6" ry="6" fill="#e8f4fd" stroke="#4a90d9" stroke-width="1.5" filter="url(#shadow)" />
    <text x="1002" y="244.55" text-anchor="middle" font-size="13" font-family="'SF Mono', 'Cascadia Code', 'Fira Code', Consolas, monospace" fill="#333">202006300044..</text>
    <rect x="1257" y="220" width="120" height="40" rx="6" ry="6" fill="#e8f4fd" stroke="#4a90d9" stroke-width="1.5" filter="url(#shadow)" />
    <text x="1317" y="244.55" text-anchor="middle" font-size="13" font-family="'SF Mono', 'Cascadia Code', 'Fira Code', Consolas, monospace" fill="#333">202006291926..</text>
    <circle cx="1407" cy="240" r="5" fill="#ccc" stroke="#ccc" stroke-width="1" />
    <rect x="1527" y="220" width="120" height="40" rx="6" ry="6" fill="#e8f4fd" stroke="#4a90d9" stroke-width="1.5" filter="url(#shadow)" />
    <text x="1587" y="244.55" text-anchor="middle" font-size="13" font-family="'SF Mono', 'Cascadia Code', 'Fira Code', Consolas, monospace" fill="#333">202009011455..</text>
    <rect x="60" y="340" width="120" height="40" rx="6" ry="6" fill="#e8f4fd" stroke="#4a90d9" stroke-width="1.5" filter="url(#shadow)" />
    <text x="120" y="364.55" text-anchor="middle" font-size="13" font-family="'SF Mono', 'Cascadia Code', 'Fira Code', Consolas, monospace" fill="#333">202011192012..</text>
    <rect x="240" y="340" width="120" height="40" rx="6" ry="6" fill="#e8f4fd" stroke="#4a90d9" stroke-width="1.5" filter="url(#shadow)" />
    <text x="300" y="364.55" text-anchor="middle" font-size="13" font-family="'SF Mono', 'Cascadia Code', 'Fira Code', Consolas, monospace" fill="#333">202106011429..</text>
    <rect x="420" y="340" width="120" height="40" rx="6" ry="6" fill="#e8f4fd" stroke="#4a90d9" stroke-width="1.5" filter="url(#shadow)" />
    <text x="480" y="364.55" text-anchor="middle" font-size="13" font-family="'SF Mono', 'Cascadia Code', 'Fira Code', Consolas, monospace" fill="#333">202011181143..</text>
    <circle cx="570" cy="360" r="5" fill="#ccc" stroke="#ccc" stroke-width="1" />
    <rect x="600" y="340" width="120" height="40" rx="6" ry="6" fill="#e8f4fd" stroke="#4a90d9" stroke-width="1.5" filter="url(#shadow)" />
    <text x="660" y="364.55" text-anchor="middle" font-size="13" font-family="'SF Mono', 'Cascadia Code', 'Fira Code', Consolas, monospace" fill="#333">202010151857..</text>
    <circle cx="750" cy="360" r="5" fill="#ccc" stroke="#ccc" stroke-width="1" />
    <circle cx="777" cy="360" r="5" fill="#ccc" stroke="#ccc" stroke-width="1" />
    <rect x="807" y="340" width="120" height="40" rx="6" ry="6" fill="#e8f4fd" stroke="#4a90d9" stroke-width="1.5" filter="url(#shadow)" />
    <text x="867" y="364.55" text-anchor="middle" font-size="13" font-family="'SF Mono', 'Cascadia Code', 'Fira Code', Consolas, monospace" fill="#333">202106011620..</text>
    <circle cx="957" cy="360" r="5" fill="#ccc" stroke="#ccc" stroke-width="1" />
    <rect x="987" y="340" width="120" height="40" rx="6" ry="6" fill="#e8f4fd" stroke="#4a90d9" stroke-width="1.5" filter="url(#shadow)" />
    <text x="1047" y="364.55" text-anchor="middle" font-size="13" font-family="'SF Mono', 'Cascadia Code', 'Fira Code', Consolas, monospace" fill="#333">202106011533..</text>
    <rect x="1167" y="340" width="120" height="40" rx="6" ry="6" fill="#e8f4fd" stroke="#4a90d9" stroke-width="1.5" filter="url(#shadow)" />
    <text x="1227" y="364.55" text-anchor="middle" font-size="13" font-family="'SF Mono', 'Cascadia Code', 'Fira Code', Consolas, monospace" fill="#333">202006300209..</text>
    <rect x="1347" y="340" width="120" height="40" rx="6" ry="6" fill="#e8f4fd" stroke="#4a90d9" stroke-width="1.5" filter="url(#shadow)" />
    <text x="1407" y="364.55" text-anchor="middle" font-size="13" font-family="'SF Mono', 'Cascadia Code', 'Fira Code', Consolas, monospace" fill="#333">202007101438..</text>
    <rect x="1527" y="340" width="120" height="40" rx="6" ry="6" fill="#e8f4fd" stroke="#4a90d9" stroke-width="1.5" filter="url(#shadow)" />
    <text x="1587" y="364.55" text-anchor="middle" font-size="13" font-family="'SF Mono', 'Cascadia Code', 'Fira Code', Consolas, monospace" fill="#333">202009021016..</text>
    <rect x="150" y="460" width="120" height="40" rx="6" ry="6" fill="#e8f4fd" stroke="#4a90d9" stroke-width="1.5" filter="url(#shadow)" />
    <text x="210" y="484.55" text-anchor="middle" font-size="13" font-family="'SF Mono', 'Cascadia Code', 'Fira Code', Consolas, monospace" fill="#333">202108271106..</text>
    <rect x="330" y="460" width="120" height="40" rx="6" ry="6" fill="#e8f4fd" stroke="#4a90d9" stroke-width="1.5" filter="url(#shadow)" />
    <text x="390" y="484.55" text-anchor="middle" font-size="13" font-family="'SF Mono', 'Cascadia Code', 'Fira Code', Consolas, monospace" fill="#333">202011191435..</text>
    <rect x="510" y="460" width="120" height="40" rx="6" ry="6" fill="#e8f4fd" stroke="#4a90d9" stroke-width="1.5" filter="url(#shadow)" />
    <text x="570" y="484.55" text-anchor="middle" font-size="13" font-family="'SF Mono', 'Cascadia Code', 'Fira Code', Consolas, monospace" fill="#333">202012091206..</text>
    <rect x="807" y="460" width="120" height="40" rx="6" ry="6" fill="#e8f4fd" stroke="#4a90d9" stroke-width="1.5" filter="url(#shadow)" />
    <text x="867" y="484.55" text-anchor="middle" font-size="13" font-family="'SF Mono', 'Cascadia Code', 'Fira Code', Consolas, monospace" fill="#333">202010151832..</text>
    <rect x="987" y="460" width="120" height="40" rx="6" ry="6" fill="#e8f4fd" stroke="#4a90d9" stroke-width="1.5" filter="url(#shadow)" />
    <text x="1047" y="484.55" text-anchor="middle" font-size="13" font-family="'SF Mono', 'Cascadia Code', 'Fira Code', Consolas, monospace" fill="#333">202107271038..</text>
    <rect x="1167" y="460" width="120" height="40" rx="6" ry="6" fill="#e8f4fd" stroke="#4a90d9" stroke-width="1.5" filter="url(#shadow)" />
    <text x="1227" y="484.55" text-anchor="middle" font-size="13" font-family="'SF Mono', 'Cascadia Code', 'Fira Code', Consolas, monospace" fill="#333">202106011633..</text>
    <rect x="1347" y="460" width="120" height="40" rx="6" ry="6" fill="#e8f4fd" stroke="#4a90d9" stroke-width="1.5" filter="url(#shadow)" />
    <text x="1407" y="484.55" text-anchor="middle" font-size="13" font-family="'SF Mono', 'Cascadia Code', 'Fira Code', Consolas, monospace" fill="#333">202106011627..</text>
    <rect x="1527" y="460" width="120" height="40" rx="6" ry="6" fill="#e8f4fd" stroke="#4a90d9" stroke-width="1.5" filter="url(#shadow)" />
    <text x="1587" y="484.55" text-anchor="middle" font-size="13" font-family="'SF Mono', 'Cascadia Code', 'Fira Code', Consolas, monospace" fill="#333">202106011551..</text>
    <rect x="1122" y="580" width="120" height="40" rx="6" ry="6" fill="#e8f4fd" stroke="#4a90d9" stroke-width="1.5" filter="url(#shadow)" />
    <text x="1182" y="604.55" text-anchor="middle" font-size="13" font-family="'SF Mono', 'Cascadia Code', 'Fira Code', Consolas, monospace" fill="#333">202107271045..</text>
  </g>
  <line x1="30" y1="680" x2="1677" y2="680" stroke="#e0e0e0" stroke-width="1" />
  <text x="853.5" y="699" text-anchor="middle" font-size="12" font-family="'SF Mono', 'Cascadia Code', 'Fira Code', Consolas, monospace" fill="#999">33 nodes · 10 dummy · 38 edges · 5 levels</text>
</svg>