<svg xmlns="http://www.w3.org/2000/svg" width="600" height="618" viewBox="0 0 600 618">
  <defs>
    <marker id="arrowhead" markerWidth="8" markerHeight="6" refX="8" refY="3" orient="auto" markerUnits="strokeWidth">
      <polygon points="0 0, 8 3, 0 6" fill="#888" />
    </marker>
    <filter id="shadow" x="-10%" y="-10%" width="130%" height="130%">
      <feDropShadow dx="1" dy="1" stdDeviation="2" flood-opacity="0.15" />
    </filter>
  </defs>
  <rect width="100%" height="100%" fill="#ffffff" rx="8" />
  <text x="300" y="26" text-anchor="middle" font-size="16" font-weight="600" font-family="'SF Mono', 'Cascadia Code', 'Fira Code', Consolas, monospace" fill="#333">Multi-Path Convergence</text>
  <line x1="30" y1="40" x2="570" y2="40" stroke="#e0e0e0" stroke-width="1" />
  <rect x="165" y="51" width="14" height="14" rx="3" ry="3" fill="#d4edda" stroke="#28a745" stroke-width="1.5" />
  <text x="183" y="62" font-size="11" font-family="'SF Mono', 'Cascadia Code', 'Fira Code', Consolas, monospace" fill="#555">Root</text>
  <rect x="255" y="51" width="14" height="14" rx="3" ry="3" fill="#fff3cd" stroke="#e6a817" stroke-width="1.5" />
  <text x="273" y="62" font-size="11" font-family="'SF Mono', 'Cascadia Code', 'Fira Code', Consolas, monospace" fill="#555">Leaf</text>
  <rect x="345" y="51" width="14" height="14" rx="3" ry="3" fill="#e8f4fd" stroke="#4a90d9" stroke-width="1.5" />
  <text x="363" y="62" font-size="11" font-family="'SF Mono', 'Cascadia Code', 'Fira Code', Consolas, monospace" fill="#555">Internal</text>
  <line x1="30" y1="68" x2="570" y2="68" stroke="#e0e0e0" stroke-width="1" />
  <g class="edges">
    <path d="M 300 168 C 300 213, 120 203, 120 248" fill="none" stroke="#888" stroke-width="1.5" marker-end="url(#arrowhead)" />
    <path d="M 300 168 L 300 248" fill="none" stroke="#888" stroke-width="1.5" marker-end="url(#arrowhead)" />
    <path d="M 300 168 C 300 213, 480 203, 480 248" fill="none" stroke="#888" stroke-width="1.5" marker-end="url(#arrowhead)" />
    <path d="M 120 288 L 120 368" fill="none" stroke="#888" stroke-width="1.5" marker-end="url(#arrowhead)" />
    <path d="M 300 288 C 300 333, 120 323, 120 368" fill="none" stroke="#888" stroke-width="1.5" marker-end="url(#arrowhead)" />
    <path d="M 300 288 L 300 368" fill="none" stroke="#888" stroke-width="1.5" marker-end="url(#arrowhead)" />
    <path d="M 480 288 L 480 368" fill="none" stroke="#888" stroke-width="1.5" marker-end="url(#arrowhead)" />
    <path d="M 120 408 C 120 453, 300 443, 300 488" fill="none" stroke="#888" stroke-width="1.5" marker-end="url(#arrowhead)" />
    <path d="M 300 408 L 300 488" fill="none" stroke="#888" stroke-width="1.5" marker-end="url(#arrowhead)" />
    <path d="M 480 408 C 480 453, 300 443, 300 488" fill="none" stroke="#888" stroke-width="1.5" marker-end="url(#arrowhead)" />
  </g>
  <g class="nodes">
    <rect x="240" y="128" width="120" height="40" rx="6" ry="6" fill="#d4edda" stroke="#28a745" stroke-width="1.5" filter="url(#shadow)" />
    <text x="300" y="152.55" text-anchor="middle" font-size="13" font-family="'SF Mono', 'Cascadia Code', 'Fira Code', Consolas, monospace" fill="#333">0</text>
    <rect x="60" y="248" width="120" height="40" rx="6" ry="6" fill="#e8f4fd" stroke="#4a90d9" stroke-width="1.5" filter="url(#shadow)" />
    <text x="120" y="272.55" text-anchor="middle" font-size="13" font-family="'SF Mono', 'Cascadia Code', 'Fira Code', Consolas, monospace" fill="#333">1</text>
    <rect x="240" y="248" width="120" height="40" rx="6" ry="6" fill="#e8f4fd" stroke="#4a90d9" stroke-width="1.5" filter="url(#shadow)" />
    <text x="300" y="272.55" text-anchor="middle" font-size="13" font-family="'SF Mono', 'Cascadia Code', 'Fira Code', Consolas, monospace" fill="#333">2</text>
    <rect x="420" y="248" width="120" height="40" rx="6" ry="6" fill="#e8f4fd" stroke="#4a90d9" stroke-width="1.5" filter="url(#shadow)" />
    <text x="480" y="272.55" text-anchor="middle" font-size="13" font-family="'SF Mono', 'Cascadia Code', 'Fira Code', Consolas, monospace" fill="#333">3</text>
    <rect x="60" y="368" width="120" height="40" rx="6" ry="6" fill="#e8f4fd" stroke="#4a90d9" stroke-width="1.5" filter="url(#shadow)" />
    <text x="120" y="392.55" text-anchor="middle" font-size="13" font-family="'SF Mono', 'Cascadia Code', 'Fira Code', Consolas, monospace" fill="#333">4</text>
    <rect x="240" y="368" width="120" height="40" rx="6" ry="6" fill="#e8f4fd" stroke="#4a90d9" stroke-width="1.5" filter="url(#shadow)" />
    <text x="300" y="392.55" text-anchor="middle" font-size="13" font-family="'SF Mono', 'Cascadia Code', 'Fira Code', Consolas, monospace" fill="#333">5</text>
    <rect x="420" y="368" width="120" height="40" rx="6" ry="6" fill="#e8f4fd" stroke="#4a90d9" stroke-width="1.5" filter="url(#shadow)" />
    <text x="480" y="392.55" text-anchor="middle" font-size="13" font-family="'SF Mono', 'Cascadia Code', 'Fira Code', Consolas, monospace" fill="#333">6</text>
    <rect x="240" y="488" width="120" height="40" rx="6" ry="6" fill="#fff3cd" stroke="#e6a817" stroke-width="1.5" filter="url(#shadow)" />
    <text x="300" y="512.55" text-anchor="middle" font-size="13" font-family="'SF Mono', 'Cascadia Code', 'Fira Code', Consolas, monospace" fill="#333">7</text>
  </g>
  <line x1="30" y1="588" x2="570" y2="588" stroke="#e0e0e0" stroke-width="1" />
  <text x="300" y="607" text-anchor="middle" font-size="12" font-family="'SF Mono', 'Cascadia Code', 'Fira Code', Consolas, monospace" fill="#999">8 nodes · 0 dummy · 10 edges · 4 levels</text>
</svg>