<svg xmlns="http://www.w3.org/2000/svg" width="1320" height="378" viewBox="0 0 1320 378">
  <defs>
    <marker id="arrowhead" markerWidth="8" markerHeight="6" refX="8" refY="3" orient="auto" markerUnits="strokeWidth">
      <polygon points="0 0, 8 3, 0 6" fill="#888" />
    </marker>
    <filter id="shadow" x="-10%" y="-10%" width="130%" height="130%">
      <feDropShadow dx="1" dy="1" stdDeviation="2" flood-opacity="0.15" />
    </filter>
  </defs>
  <rect width="100%" height="100%" fill="#ffffff" rx="8" />
  <text x="660" y="26" text-anchor="middle" font-size="16" font-weight="600" font-family="'SF Mono', 'Cascadia Code', 'Fira Code', Consolas, monospace" fill="#333">Wide Fan-Out Hierarchy</text>
  <line x1="30" y1="40" x2="1290" y2="40" stroke="#e0e0e0" stroke-width="1" />
  <rect x="525" y="51" width="14" height="14" rx="3" ry="3" fill="#d4edda" stroke="#28a745" stroke-width="1.5" />
  <text x="543" y="62" font-size="11" font-family="'SF Mono', 'Cascadia Code', 'Fira Code', Consolas, monospace" fill="#555">Root</text>
  <rect x="615" y="51" width="14" height="14" rx="3" ry="3" fill="#fff3cd" stroke="#e6a817" stroke-width="1.5" />
  <text x="633" y="62" font-size="11" font-family="'SF Mono', 'Cascadia Code', 'Fira Code', Consolas, monospace" fill="#555">Leaf</text>
  <rect x="705" y="51" width="14" height="14" rx="3" ry="3" fill="#e8f4fd" stroke="#4a90d9" stroke-width="1.5" />
  <text x="723" y="62" font-size="11" font-family="'SF Mono', 'Cascadia Code', 'Fira Code', Consolas, monospace" fill="#555">Internal</text>
  <line x1="30" y1="68" x2="1290" y2="68" stroke="#e0e0e0" stroke-width="1" />
  <g class="edges">
    <path d="M 660 168 C 660 303, 120 113, 120 248" fill="none" stroke="#888" stroke-width="1.5" marker-end="url(#arrowhead)" />
    <path d="M 660 168 C 660 258, 300 158, 300 248" fill="none" stroke="#888" stroke-width="1.5" marker-end="url(#arrowhead)" />
    <path d="M 660 168 C 660 213, 480 203, 480 248" fill="none" stroke="#888" stroke-width="1.5" marker-end="url(#arrowhead)" />
    <path d="M 660 168 L 660 248" fill="none" stroke="#888" stroke-width="1.5" marker-end="url(#arrowhead)" />
    <path d="M 660 168 C 660 213, 840 203, 840 248" fill="none" stroke="#888" stroke-width="1.5" marker-end="url(#arrowhead)" />
    <path d="M 660 168 C 660 258, 1020 158, 1020 248" fill="none" stroke="#888" stroke-width="1.5" marker-end="url(#arrowhead)" />
    <path d="M 660 168 C 660 303, 1200 113, 1200 248" fill="none" stroke="#888" stroke-width="1.5" marker-end="url(#arrowhead)" />
  </g>
  <g class="nodes">
    <rect x="600" y="128" width="120" height="40" rx="6" ry="6" fill="#d4edda" stroke="#28a745" stroke-width="1.5" filter="url(#shadow)" />
    <text x="660" y="152.55" text-anchor="middle" font-size="13" font-family="'SF Mono', 'Cascadia Code', 'Fira Code', Consolas, monospace" fill="#333">0</text>
    <rect x="60" y="248" width="120" height="40" rx="6" ry="6" fill="#fff3cd" stroke="#e6a817" stroke-width="1.5" filter="url(#shadow)" />
    <text x="120" y="272.55" text-anchor="middle" font-size="13" font-family="'SF Mono', 'Cascadia Code', 'Fira Code', Consolas, monospace" fill="#333">1</text>
    <rect x="240" y="248" width="120" height="40" rx="6" ry="6" fill="#fff3cd" stroke="#e6a817" stroke-width="1.5" filter="url(#shadow)" />
    <text x="300" y="272.55" text-anchor="middle" font-size="13" font-family="'SF Mono', 'Cascadia Code', 'Fira Code', Consolas, monospace" fill="#333">2</text>
    <rect x="420" y="248" width="120" height="40" rx="6" ry="6" fill="#fff3cd" stroke="#e6a817" stroke-width="1.5" filter="url(#shadow)" />
    <text x="480" y="272.55" text-anchor="middle" font-size="13" font-family="'SF Mono', 'Cascadia Code', 'Fira Code', Consolas, monospace" fill="#333">3</text>
    <rect x="600" y="248" width="120" height="40" rx="6" ry="6" fill="#fff3cd" stroke="#e6a817" stroke-width="1.5" filter="url(#shadow)" />
    <text x="660" y="272.55" text-anchor="middle" font-size="13" font-family="'SF Mono', 'Cascadia Code', 'Fira Code', Consolas, monospace" fill="#333">4</text>
    <rect x="780" y="248" width="120" height="40" rx="6" ry="6" fill="#fff3cd" stroke="#e6a817" stroke-width="1.5" filter="url(#shadow)" />
    <text x="840" y="272.55" text-anchor="middle" font-size="13" font-family="'SF Mono', 'Cascadia Code', 'Fira Code', Consolas, monospace" fill="#333">5</text>
    <rect x="960" y="248" width="120" height="40" rx="6" ry="6" fill="#fff3cd" stroke="#e6a817" stroke-width="1.5" filter="url(#shadow)" />
    <text x="1020" y="272.55" text-anchor="middle" font-size="13" font-family="'SF Mono', 'Cascadia Code', 'Fira Code', Consolas, monospace" fill="#333">6</text>
    <rect x="1140" y="248" width="120" height="40" rx="6" ry="6" fill="#fff3cd" stroke="#e6a817" stroke-width="1.5" filter="url(#shadow)" />
    <text x="1200" y="272.55" text-anchor="middle" font-size="13" font-family="'SF Mono', 'Cascadia Code', 'Fira Code', Consolas, monospace" fill="#333">7</text>
  </g>
  <line x1="30" y1="348" x2="1290" y2="348" stroke="#e0e0e0" stroke-width="1" />
  <text x="660" y="367" text-anchor="middle" font-size="12" font-family="'SF Mono', 'Cascadia Code', 'Fira Code', Consolas, monospace" fill="#999">8 nodes · 0 dummy · 7 edges · 2 levels</text>
</svg>